<svg width="27" height="22" viewBox="0 0 27 22" fill="none" xmlns="http://www.w3.org/2000/svg">
  <path d="M23.8605 12.925C23.8605 12.7062 23.7612 12.4964 23.5846 12.3416C23.408 12.1869 23.1684 12.1 22.9186 12.1H19.1512C18.9014 12.1 18.6618 12.1869 18.4852 12.3416C18.3085 12.4964 18.2093 12.7062 18.2093 12.925V20.35H16.3256V2.475C16.3256 1.6742 16.3231 1.155 16.2653 0.7744C16.21 0.4169 16.1209 0.3047 16.0493 0.242C15.9777 0.1793 15.8496 0.1012 15.4415 0.0528001C15.0057 0.0022001 14.4142 0 13.5 0C12.5858 0 11.993 0.0022001 11.5585 0.0528001C11.1504 0.1012 11.0223 0.1793 10.9507 0.242C10.8791 0.3047 10.79 0.4169 10.7347 0.7744C10.6769 1.1561 10.6744 1.6742 10.6744 2.475V20.35H8.7907V7.425C8.7907 7.2062 8.69147 6.99635 8.51483 6.84164C8.3382 6.68692 8.09863 6.6 7.84884 6.6H4.0814C3.8316 6.6 3.59203 6.68692 3.4154 6.84164C3.23877 6.99635 3.13953 7.2062 3.13953 7.425V20.35H0.94186C0.692064 20.35 0.452498 20.4369 0.275865 20.5916C0.0992315 20.7464 0 20.9562 0 21.175C0 21.3938 0.0992315 21.6036 0.275865 21.7584C0.452498 21.9131 0.692064 22 0.94186 22H26.0581C26.3079 22 26.5475 21.9131 26.7241 21.7584C26.9008 21.6036 27 21.3938 27 21.175C27 20.9562 26.9008 20.7464 26.7241 20.5916C26.5475 20.4369 26.3079 20.35 26.0581 20.35H23.8605V12.925Z" fill="currentColor"/>
</svg>
