<svg width="42" height="42" viewBox="0 0 42 42" fill="none" xmlns="http://www.w3.org/2000/svg">
<path d="M21 24.9375C19.4839 24.9388 17.9912 24.5644 16.6552 23.8478C15.3192 23.1311 14.1816 22.0945 13.3442 20.8307L15.5308 19.3778C16.1294 20.2804 16.9421 21.0209 17.8964 21.5331C18.8507 22.0453 19.9169 22.3134 21 22.3134C22.0831 22.3134 23.1493 22.0453 24.1036 21.5331C25.0579 21.0209 25.8706 20.2804 26.4692 19.3778L28.6558 20.8307C27.8184 22.0945 26.6808 23.1311 25.3448 23.8478C24.0088 24.5644 22.5161 24.9388 21 24.9375ZM26.25 10.5C25.7308 10.5 25.2233 10.654 24.7916 10.9424C24.3599 11.2308 24.0235 11.6408 23.8248 12.1205C23.6261 12.6001 23.5742 13.1279 23.6754 13.6371C23.7767 14.1463 24.0267 14.6141 24.3938 14.9812C24.761 15.3483 25.2287 15.5983 25.7379 15.6996C26.2471 15.8009 26.7749 15.7489 27.2545 15.5502C27.7342 15.3515 28.1442 15.0151 28.4326 14.5834C28.721 14.1517 28.875 13.6442 28.875 13.125C28.8785 12.7793 28.813 12.4364 28.6823 12.1163C28.5517 11.7963 28.3584 11.5055 28.114 11.261C27.8695 11.0166 27.5787 10.8234 27.2587 10.6927C26.9386 10.562 26.5957 10.4965 26.25 10.5ZM15.75 10.5C15.2308 10.5 14.7233 10.654 14.2916 10.9424C13.86 11.2308 13.5235 11.6408 13.3248 12.1205C13.1261 12.6001 13.0742 13.1279 13.1754 13.6371C13.2767 14.1463 13.5267 14.6141 13.8938 14.9812C14.261 15.3483 14.7287 15.5983 15.2379 15.6996C15.7471 15.8009 16.2749 15.7489 16.7545 15.5502C17.2342 15.3515 17.6442 15.0151 17.9326 14.5834C18.221 14.1517 18.375 13.6442 18.375 13.125C18.3785 12.7793 18.313 12.4364 18.1823 12.1163C18.0517 11.7963 17.8584 11.5055 17.614 11.261C17.3695 11.0166 17.0787 10.8234 16.7587 10.6927C16.4386 10.562 16.0957 10.4965 15.75 10.5Z" fill="white"/>
<path d="M23.2785 39.375L21 38.0625L26.25 28.875H34.125C34.4699 28.8755 34.8114 28.808 35.1302 28.6762C35.4489 28.5445 35.7385 28.3512 35.9823 28.1073C36.2262 27.8635 36.4195 27.5739 36.5512 27.2552C36.683 26.9364 36.7505 26.5949 36.75 26.25V7.875C36.7505 7.53013 36.683 7.18856 36.5512 6.86984C36.4195 6.55113 36.2262 6.26155 35.9823 6.01769C35.7385 5.77383 35.4489 5.5805 35.1302 5.44876C34.8114 5.31703 34.4699 5.24948 34.125 5.25H7.875C7.53013 5.24948 7.18856 5.31703 6.86984 5.44876C6.55113 5.5805 6.26155 5.77383 6.01769 6.01769C5.77383 6.26155 5.5805 6.55113 5.44876 6.86984C5.31703 7.18856 5.24948 7.53013 5.25 7.875V26.25C5.24948 26.5949 5.31703 26.9364 5.44876 27.2552C5.5805 27.5739 5.77383 27.8635 6.01769 28.1073C6.26155 28.3512 6.55113 28.5445 6.86984 28.6762C7.18856 28.808 7.53013 28.8755 7.875 28.875H19.6875V31.5H7.875C6.48261 31.5 5.14726 30.9469 4.16269 29.9623C3.17812 28.9777 2.625 27.6424 2.625 26.25V7.875C2.625 6.48261 3.17812 5.14726 4.16269 4.16269C5.14726 3.17812 6.48261 2.625 7.875 2.625H34.125C35.5174 2.625 36.8527 3.17812 37.8373 4.16269C38.8219 5.14726 39.375 6.48261 39.375 7.875V26.25C39.375 27.6424 38.8219 28.9777 37.8373 29.9623C36.8527 30.9469 35.5174 31.5 34.125 31.5H27.7791L23.2785 39.375Z" fill="white"/>
</svg>
