<svg width="35" height="35" viewBox="0 0 35 35" fill="none" xmlns="http://www.w3.org/2000/svg">
<path fill-rule="evenodd" clip-rule="evenodd" d="M8.49188 20.6748C8.77274 21.297 8.82647 21.9979 8.64372 22.6557C8.46096 23.3134 8.0533 23.8861 7.49172 24.2742C6.93014 24.6623 6.25023 24.8412 5.57038 24.7796C4.89053 24.718 4.25382 24.4199 3.77112 23.9372C3.28843 23.4545 2.99033 22.8178 2.92875 22.1379C2.86716 21.4581 3.04598 20.7782 3.43408 20.2166C3.82218 19.655 4.39495 19.2474 5.05267 19.0646C5.71039 18.8819 6.41137 18.9356 7.03355 19.2164L10.4665 15.7835C10.266 15.3393 10.1801 14.852 10.2165 14.366C10.2529 13.88 10.4105 13.4109 10.6749 13.0015C10.9393 12.5921 11.3021 12.2555 11.7301 12.0224C12.1581 11.7894 12.6377 11.6672 13.125 11.6672C13.6123 11.6672 14.0919 11.7894 14.5199 12.0224C14.9479 12.2555 15.3107 12.5921 15.5751 13.0015C15.8395 13.4109 15.9971 13.88 16.0335 14.366C16.0699 14.852 15.984 15.3393 15.7835 15.7835L19.2165 19.2164C19.5937 19.0461 20.0028 18.9581 20.4167 18.9581C20.8305 18.9581 21.2397 19.0461 21.6169 19.2164L26.5081 14.3252C26.2273 13.703 26.1735 13.002 26.3563 12.3443C26.539 11.6866 26.9467 11.1138 27.5083 10.7257C28.0699 10.3376 28.7498 10.1588 29.4296 10.2204C30.1095 10.282 30.7462 10.5801 31.2289 11.0628C31.7116 11.5455 32.0097 12.1822 32.0713 12.862C32.1328 13.5419 31.954 14.2218 31.5659 14.7834C31.1778 15.345 30.6051 15.7526 29.9473 15.9354C29.2896 16.1181 28.5886 16.0644 27.9665 15.7835L23.0752 20.6748C23.2757 21.119 23.3616 21.6064 23.3252 22.0923C23.2888 22.5783 23.1312 23.0474 22.8668 23.4568C22.6024 23.8662 22.2396 24.2028 21.8116 24.4359C21.3836 24.669 20.904 24.7911 20.4167 24.7911C19.9293 24.7911 19.4497 24.669 19.0218 24.4359C18.5938 24.2028 18.231 23.8662 17.9666 23.4568C17.7022 23.0474 17.5446 22.5783 17.5082 22.0923C17.4717 21.6064 17.5577 21.119 17.7581 20.6748L14.3252 17.2419C13.948 17.4122 13.5389 17.5002 13.125 17.5002C12.7111 17.5002 12.302 17.4122 11.9248 17.2419L8.49188 20.6748Z" fill="#FFAB00"/>
</svg>
