<svg width="35" height="35" viewBox="0 0 35 35" fill="none" xmlns="http://www.w3.org/2000/svg">
<path d="M29.1667 5.83334H5.83333C4.21458 5.83334 2.93125 7.13126 2.93125 8.75001L2.91666 26.25C2.91666 27.8688 4.21458 29.1667 5.83333 29.1667H29.1667C30.7854 29.1667 32.0833 27.8688 32.0833 26.25V8.75001C32.0833 7.13126 30.7854 5.83334 29.1667 5.83334ZM12.3958 21.875H10.6458L6.92708 16.7708V21.875H5.10416V13.125H6.92708L10.5729 18.2292V13.125H12.3958V21.875ZM19.6875 14.9625H16.0417V16.5958H19.6875V18.4333H16.0417V20.0521H19.6875V21.875H13.8542V13.125H19.6875V14.9625ZM29.8958 20.4167C29.8958 21.2188 29.2396 21.875 28.4375 21.875H22.6042C21.8021 21.875 21.1458 21.2188 21.1458 20.4167V13.125H22.9687V19.7021H24.6167V14.5688H26.4396V19.6875H28.0729V13.125H29.8958V20.4167Z" fill="#FFAB00"/>
</svg>
